inDegrees=no
num_controls=7
num_derivatives=13
num_iterations=75
num_multipliers=7
num_parameters=0
num_slacks=7
num_states=26
objective=0.332972
objective_accelerations=0.036349
objective_balance=0.001182
objective_effort=0.026637
objective_height=0.267147
objective_ligament=0.001656
solver_duration=794.738582
status=Solve_Succeeded
success=true
DataType=double
version=3
OpenSimVersion=4.5
endheader
time	/jointset/ground_pelvis/pelvis_tilt/value	/jointset/ground_pelvis/pelvis_tx/value	/jointset/ground_pelvis/pelvis_ty/value	/jointset/hip_r/hip_flexion_r/value	/jointset/hip_r/hip_adduction_r/value	/jointset/hip_r/hip_rotation_r/value	/jointset/back/lumbar_extension/value	/jointset/patellofemoral_r/patellar_flexion_r/value	/jointset/knee_r/knee_flexion_r/value	/jointset/knee_r/knee_adduction_r/value	/jointset/knee_r/knee_rotation_r/value	/jointset/ankle_r/ankle_angle_r/value	/jointset/subtalar_r/subtalar_angle_r/value	/jointset/ground_pelvis/pelvis_tilt/speed	/jointset/ground_pelvis/pelvis_tx/speed	/jointset/ground_pelvis/pelvis_ty/speed	/jointset/hip_r/hip_flexion_r/speed	/jointset/hip_r/hip_adduction_r/speed	/jointset/hip_r/hip_rotation_r/speed	/jointset/back/lumbar_extension/speed	/jointset/patellofemoral_r/patellar_flexion_r/speed	/jointset/knee_r/knee_flexion_r/speed	/jointset/knee_r/knee_adduction_r/speed	/jointset/knee_r/knee_rotation_r/speed	/jointset/ankle_r/ankle_angle_r/speed	/jointset/subtalar_r/subtalar_angle_r/speed	/forceset/tau_hip_flexion_r	/forceset/tau_hip_adduction_r	/forceset/tau_hip_rotation_r	/forceset/tau_knee_flexion_r	/forceset/tau_ankle_angle_r	/forceset/tau_subtalar_angle_r	/forceset/tau_lumbar_extension	lambda_cid13_p0	lambda_cid14_p0	lambda_cid14_p1	lambda_cid14_p2	lambda_cid14_p3	lambda_cid14_p4	lambda_cid14_p5	/jointset/ground_pelvis/pelvis_tilt/accel	/jointset/ground_pelvis/pelvis_tx/accel	/jointset/ground_pelvis/pelvis_ty/accel	/jointset/hip_r/hip_flexion_r/accel	/jointset/hip_r/hip_adduction_r/accel	/jointset/hip_r/hip_rotation_r/accel	/jointset/back/lumbar_extension/accel	/jointset/patellofemoral_r/patellar_flexion_r/accel	/jointset/knee_r/knee_flexion_r/accel	/jointset/knee_r/knee_adduction_r/accel	/jointset/knee_r/knee_rotation_r/accel	/jointset/ankle_r/ankle_angle_r/accel	/jointset/subtalar_r/subtalar_angle_r/accel	gamma_cid13_p0	gamma_cid14_p0	gamma_cid14_p1	gamma_cid14_p2	gamma_cid14_p3	gamma_cid14_p4	gamma_cid14_p5
0.5	-0.1712658995660674	0.03261699492211299	0.8068638942073417	0.9099651007073518	-0.2427372362626069	-0.07634841980120426	-0.6477320901244777	0.9497447159232653	0.9497447159232734	0.02711296185457502	0.1745088969384986	0.2910839554967949	0.1059396987311027	-0.4275156223801012	-0.2025351479797184	-0.4938899846233685	1.917017881409786	-0.005308270671157675	0.3416835426757307	-0.7369247843161677	1.919432438067386	1.919432438067674	-0.2987826673996428	-0.0001617708425469135	0.5284078047083336	0.1754959145590236	-0.214448042282422	0.01975245253660756	0.0286197614303733	-0.2665272334942245	-0.0207848317343293	-0.01364129054591966	0.249369485740897	-8.323287752102255	-49.73007680805939	-13.51666190904218	1.303116182213208	-2.937577230591442	-640.8994105366137	49.63003888233633	0.341905080256112	0.583200803867586	-0.4151919933480018	-1.303874988463107	-0.05011386141492224	-0.3751200374061494	1.820003371195877	-1.357809382771844	-1.357809382771787	0.5174408284522469	-0.05300826409396862	-0.5163366839118052	-0.09224995754559528	-6.486970705644303e-09	1.465702599238247e-07	2.432113727491776e-06	1.511372733214471e-06	-3.645808274576054e-07	8.58332103781895e-09	1.511885088831828e-06
0.51	-0.1755230338161215	0.03062097234528321	0.8019053847723021	0.9290670982582684	-0.2427929286980635	-0.0729542779748559	-0.6550097351247891	0.9688681108233945	0.9688681108234548	0.02414868462290277	0.1745073437888033	0.2963412662695387	0.107689582292656	-0.4238413052996147	-0.1966534359153524	-0.4977010576594707	1.903122243188651	-0.005827909837310936	0.3371339325030706	-0.7185145269084302	1.904984642003414	1.904984642003383	-0.2940548395175753	-0.0001550529572655662	0.5229752447566498	0.1744507818602327	-0.2214370081247692	0.02119062942743923	0.02881104734424867	-0.2707045233748059	-0.0224922599147186	-0.01330789181944316	0.2556749490284697	-7.376849107143887	-50.59309528138255	-13.67460240332292	1.501490224012908	-2.790492460805746	-645.9003402339343	49.64165926788917	0.3906976374881206	0.5929719243591088	-0.3474378021912389	-1.471296824461148	-0.0521723124742943	-0.4965283448755322	1.864990251219271	-1.527547842143241	-1.527547842191125	0.4534883372987518	0.02694670819529934	-0.5686652396929247	-0.1145768901725222	-8.827548732668795e-09	1.429018351820904e-07	2.445439764044654e-06	1.46229838436351e-06	-3.651170253529996e-07	1.170612823595924e-09	1.575713389946788e-06
0.52	-0.179741324372261	0.02868422999242478	0.7969120900382115	0.9480223617098688	-0.2428536741988341	-0.06960596161776975	-0.6621005868858918	0.9878391711380984	0.9878391711382057	0.02123229258389633	0.1745057447966302	0.3015418615249866	0.1094282281343959	-0.4197468835974046	-0.1906791031854485	-0.5008470444335712	1.887671061546623	-0.006318883733813916	0.3325184488232267	-0.6995661364744328	1.888965520982107	1.888965520981757	-0.289205628866918	-0.0001709393377397718	0.5170647012491153	0.1732483705963746	-0.2284259739671236	0.02262880631826963	0.02900233325810916	-0.274881813255389	-0.02419968809510802	-0.01297449309296842	0.2619804123160361	-6.490082327883625	-51.45493229755844	-13.82903143644527	1.695531428901051	-2.660115220298246	-650.8842234534472	49.65005731815049	0.4259260046008318	0.6017249369751707	-0.2821747409476478	-1.614983672641447	-0.04438080748486682	-0.388294738842913	1.927629976447852	-1.67207437423889	-1.672074374238859	0.5417173821702203	-0.05752911724506849	-0.6119333950819729	-0.1237056705590312	-7.77861699103794e-09	1.371659446647191e-07	2.351601679655038e-06	1.382643329028885e-06	-3.53190811888376e-07	-9.878576605118935e-10	1.565641261509926e-06
0.53	-0.1839166439136761	0.02680763801786037	0.7918906860871057	0.9668154985043386	-0.2429191885526358	-0.06630415802230327	-0.6689993755858299	1.006642331035702	1.006642331036016	0.01836485997602474	0.174503833775183	0.3066810428571557	0.1111540659053555	-0.4152499411696679	-0.1846284762845178	-0.5033193483761863	1.870704637213217	-0.00677659900254801	0.3277959217426163	-0.6801174979676661	1.871414024176851	1.871414024176625	-0.2843014173860425	-0.0002028563759294332	0.5107010721293406	0.1718989640004747	-0.2352479324296259	0.02398720592654479	0.02907266003249829	-0.2792644088411098	-0.02579621653329085	-0.01265628920542065	0.268119727658632	-5.663735855559765	-52.28951025530087	-13.98389177141606	1.888046569592381	-2.513050737917144	-655.9480290044299	49.6788119024975	0.4716539837558976	0.6082844977649073	-0.2125990335271438	-1.775203207043782	-0.04503372167330437	-0.5212058901701692	1.964596619628273	-1.834551042402433	-1.834551042383839	0.4620002714694028	0.0255726933234082	-0.6592283449268839	-0.1430697020182182	-6.175216776994131e-09	1.318121597937753e-07	2.252684113062258e-06	1.30672396212944e-06	-3.409072050364564e-07	-2.254982639340227e-09	1.549554456516067e-06
0.54	-0.1880449789064336	0.02499186289852794	0.7868479909340519	0.9854314247768031	-0.2429889934261467	-0.06305097453714337	-0.675701454734333	1.025262403223506	1.025262403224028	0.01554591493104103	0.1745019227214405	0.311754457763227	0.1128659073007733	-0.410349973866103	-0.1785157321390524	-0.5051052848231518	1.852228957145666	-0.00717698767550462	0.3227944267620024	-0.6602242261874146	1.852347979022255	1.852347979022153	-0.2795081162882388	-0.000170945796946627	0.503911416029499	0.1704490954880648	-0.2420698908921359	0.02534560553481503	0.02914298680690768	-0.2836470044268305	-0.02739274497147495	-0.01233808531788139	0.2742590430012214	-4.898017239320422	-53.12326662143273	-14.13487752677886	2.075683888180218	-2.385561340462246	-661.0035190636147	49.70873611550553	0.5065309797664695	0.6141483858821197	-0.1449012418177363	-1.916834819470336	-0.0329154883293664	-0.4440883188436013	2.016556631144846	-1.974984044106817	-1.974984044106848	0.5195353055558632	-0.04476359381056506	-0.6971387910953948	-0.1437980538610247	-3.958362082833856e-09	1.268811301061131e-07	2.148146693819169e-06	1.234937697328491e-06	-3.282281842241242e-07	-2.535938122965715e-09	1.526813115757018e-06
0.55	-0.1921223981856744	0.02323745730809062	0.7817908727100865	1.003855259560116	-0.243062575594742	-0.05984876849740485	-0.6822025045641471	1.043684423271362	1.043684423271528	0.01277466968943001	0.174500389050705	0.3167578897461659	0.1145626417018402	-0.4050718505049632	-0.1723609477570424	-0.5062023067424954	1.832298335040009	-0.007534088747034767	0.3176121451373022	-0.6399293607874253	1.831816082602971	1.831816082603004	-0.2747500941130051	-0.0001317562220413248	0.4967086628493329	0.1688740299093328	-0.2486682453149979	0.02657560636958354	0.02910797853880399	-0.2881572262638834	-0.02896107872733906	-0.01200936829077173	0.2801616408495948	-4.192706488771418	-53.94884260060186	-14.27477284021104	2.255735184749257	-2.200405025969909	-666.0357259795809	49.77333285769198	0.5477697439991163	0.6167449305759605	-0.07469522071625916	-2.067109433916584	-0.03602231079317467	-0.5605182608628728	2.044408342632938	-2.128284082899169	-2.128284082878855	0.4528282315345049	0.02917114560582873	-0.7418601401370298	-0.1674531887727216	-2.011809765554543e-09	1.215015872585578e-07	2.036139726754913e-06	1.159255792317812e-06	-3.144163453193248e-07	-2.327441731711575e-09	1.493822280313185e-06
0.5600000000000001	-0.1961451728853605	0.02154471985471659	0.776726265756183	1.022072601416811	-0.2431395117528992	-0.05669942930922954	-0.6884989143703198	1.061893926026613	1.061893926026426	0.01005078318116974	0.1744994294582123	0.3216872908855715	0.116243006971341	-0.3994210579553715	-0.1661821047263921	-0.5066030308107845	1.810930371822224	-0.007847785587695577	0.3122210564494152	-0.6192962214591605	1.80984452050129	1.809844520501459	-0.2700363696166754	-5.613014854658388e-05	0.489105247322774	0.1671752691748634	-0.2552665997378673	0.0278056072043467	0.02907297027072453	-0.2926674481009358	-0.03052941248320453	-0.01168065126367146	0.2860642386979619	-3.547329794524938	-54.77422535799366	-14.41043977855489	2.430322543916068	-2.036592323761981	-671.0724976362601	49.84332035321258	0.5810648174568921	0.6189601156101502	-0.00564167160682269	-2.204303041896198	-0.02423464215549393	-0.4858497314809544	2.084211416799956	-2.262917180586136	-2.262917180586177	0.5106757697750383	-0.03747629409266957	-0.777271260373976	-0.168537085008525	-3.896203005323737e-10	1.155838286191306e-07	1.915169302305258e-06	1.078899119055459e-06	-2.992451247035649e-07	-1.531603090601902e-09	1.44853205124761e-06
0.5700000000000001	-0.2001096687822626	0.01991383257707865	0.7716611220494771	1.040069286230342	-0.2432194171509167	-0.05360451621012462	-0.6945874034003089	1.079876729369543	1.079876729369624	0.007374222087285469	0.1744991113489548	0.3265387224712206	0.1179056811796464	-0.3934193012149872	-0.1599962672313385	-0.5063093476809833	1.788177207118766	-0.008130231573373774	0.3067439155513795	-0.5983620041711041	1.786491463564072	1.786491463564241	-0.2652676438197177	-8.141968835723611e-06	0.4811211375140893	0.1653325011092392	-0.2616246204401472	0.02896244302198938	0.02894090354771	-0.2972429897322156	-0.03206829788249325	-0.01137914157785884	0.2917103780140002	-2.960955809727835	-55.58877456543283	-14.55529196470055	2.605534455271717	-1.818695577171952	-676.0127947040605	49.89285297641793	0.6185647307741621	0.6181999692268059	0.06432751639801292	-2.34521642942528	-0.02955399138233376	-0.5813194766896815	2.103963939953151	-2.405202733963505	-2.405202733963382	0.4614278486285013	0.02611049054800669	-0.8180307449205705	-0.1957943506738867	3.433292576663465e-10	1.090662951973076e-07	1.794300563089796e-06	9.943651865942517e-07	-2.835461875272646e-07	-9.115084189711117e-10	1.396565888312116e-06
0.58	-0.204012380386071	0.01834476455494612	0.7666024060162941	1.057831560747866	-0.2433020078917138	-0.05056490916154577	-0.7004653628463884	1.097619261586364	1.097619261586717	0.004745639624151744	0.1744993079448057	0.3313085029780224	0.1195491981706285	-0.3870641993368079	-0.153818253625311	-0.5053174961062064	1.764048312621121	-0.008384854143382268	0.3011598463443502	-0.5771903046772646	1.761790295279899	1.761790295280069	-0.2604406434638641	4.681087267604271e-05	0.4727750315532105	0.1633438257102341	-0.2679826411424338	0.03011927883962448	0.02880883682474116	-0.3018185313634934	-0.03360718328178412	-0.01107763189205993	0.2973565173300328	-2.432114088313017	-56.4040847405754	-14.69591648793194	2.775092593243659	-1.622520197581863	-680.9739029848813	49.95150451787534	0.6517338450158947	0.6173953378049263	0.133992017388384	-2.479449000733485	-0.01866995902154496	-0.5072353932797071	2.131707857956569	-2.532539449977128	-2.532539449977237	0.522330681554201	-0.03608336173248289	-0.8496704908127936	-0.1977185516847192	-8.180106278868592e-11	1.017676597332949e-07	1.673564251156073e-06	9.043911026182605e-07	-2.671599915744468e-07	-5.202896145686329e-10	1.335905485918126e-06
0.59	-0.2078498763931386	0.01683738688999174	0.7615570842199314	1.075345863108538	-0.2433870249928965	-0.047581327777481	-0.7061305148346978	1.115108218303525	1.115108218303622	0.002165870008081232	0.1744998793019268	0.3359930811444483	0.1211720642239176	-0.3803807302276087	-0.1476628357414536	-0.5036306432001276	1.738592360089885	-0.008615196814562286	0.295535136896117	-0.5558166354188329	1.735787726998563	1.735787726998437	-0.2555079879667465	6.955050922433435e-05	0.4640871897894216	0.1612037311852988	-0.2740537437881708	0.0311520426082138	0.02858965390348417	-0.3064596336527259	-0.03507712492313335	-0.01078324133825224	0.3027089855426296	-1.959498624046381	-57.19126750190976	-14.83149083564663	2.94016952665471	-1.385097102496613	-685.7942056415931	50.0203049925038	0.6848030948554227	0.6137300452726234	0.2034648639298249	-2.611626144956428	-0.02451977611157179	-0.5933122808070941	2.143715094669147	-2.666113624062892	-2.666113624107127	0.479715653102361	0.02199762918642879	-0.8864042589141921	-0.2256499723186882	-1.500940452440233e-08	7.594102878983853e-08	1.461173432462241e-06	6.394922826304113e-07	-2.283225642551867e-07	-1.158912712764326e-08	1.166773137313946e-06
